<!DOCTYPE svg PUBLIC "-//W3C//DTD SVG 20010904//EN" "http://www.w3.org/TR/2001/REC-SVG-20010904/DTD/svg10.dtd">
<svg version="1.0" xmlns="http://www.w3.org/2000/svg" width="533px" height="533px" viewBox="0 0 5330 5330" preserveAspectRatio="xMidYMid meet">
<g id="layer101" fill="#3a96b6" stroke="none">
 <path d="M1780 4839 c-41 -5 -84 -13 -95 -18 -11 -5 -43 -15 -72 -21 -29 -7 -69 -20 -90 -31 -20 -10 -45 -19 -55 -19 -10 0 -18 -4 -18 -8 0 -5 -11 -14 -24 -20 -14 -6 -43 -27 -64 -47 -22 -19 -43 -35 -47 -35 -5 0 -24 -17 -44 -39 l-36 -38 -149 -7 c-83 -4 -155 -11 -160 -15 -6 -5 -38 -12 -70 -16 -115 -14 -290 -82 -416 -161 -79 -50 -204 -173 -226 -221 -7 -17 -18 -34 -24 -38 -5 -3 -15 -25 -21 -48 -6 -23 -16 -45 -23 -49 -15 -10 -15 -279 0 -299 6 -8 16 -33 24 -56 7 -24 17 -43 22 -43 4 0 8 -6 8 -13 0 -7 13 -28 30 -47 16 -19 29 -39 30 -43 0 -9 89 -97 98 -97 4 0 21 -13 37 -28 17 -16 59 -44 95 -63 36 -19 68 -38 72 -44 4 -5 8 -6 8 -2 0 5 10 1 22 -7 12 -9 30 -16 40 -16 10 0 18 -4 18 -9 0 -5 29 -15 65 -22 36 -7 65 -16 65 -21 0 -4 10 -8 23 -8 31 0 67 -11 67 -20 0 -4 -11 -19 -25 -34 -14 -15 -25 -29 -25 -32 0 -7 -83 -113 -109 -140 -12 -12 -21 -24 -21 -29 0 -4 -11 -21 -25 -39 -14 -17 -34 -41 -43 -53 -9 -13 -27 -34 -39 -48 -33 -38 -29 -51 22 -64 25 -6 45 -15 45 -20 0 -5 10 -11 23 -13 25 -3 26 -35 2 -54 -8 -5 -17 -22 -20 -37 -6 -21 -3 -28 11 -33 16 -5 160 -73 173 -81 2 -2 -4 -18 -14 -37 -10 -18 -15 -40 -12 -49 7 -19 83 -55 182 -87 55 -18 100 -24 210 -27 219 -7 360 20 562 109 24 10 47 18 53 18 5 0 10 4 10 9 0 5 12 12 27 16 24 6 33 0 75 -47 26 -29 54 -60 63 -69 8 -9 15 -18 15 -20 0 -2 -50 -5 -112 -6 -61 -1 -114 -6 -117 -11 -3 -5 -36 -15 -73 -22 -38 -7 -68 -16 -68 -21 0 -4 -16 -11 -35 -15 -19 -3 -35 -10 -35 -16 0 -5 -4 -6 -10 -3 -5 3 -10 2 -10 -4 0 -5 -13 -12 -30 -16 -16 -4 -30 -11 -30 -16 0 -6 -4 -8 -9 -5 -5 3 -14 -1 -21 -9 -7 -8 -19 -15 -26 -15 -8 0 -14 -5 -14 -12 0 -6 -3 -9 -6 -5 -7 7 -4 9 -101 -73 -77 -64 -158 -152 -184 -200 -27 -50 -38 -58 -90 -69 -72 -16 -135 -61 -166 -119 -17 -31 -20 -125 -5 -130 7 -2 15 -21 18 -43 5 -30 11 -39 26 -39 25 0 58 -18 58 -31 0 -6 11 -35 25 -65 14 -30 25 -59 25 -63 0 -5 4 -11 9 -13 7 -3 26 -35 107 -187 24 -44 32 -91 15 -91 -24 0 -39 -405 -16 -428 3 -3 15 0 28 6 12 6 57 15 99 21 81 11 186 41 254 72 22 11 44 19 49 19 5 0 17 7 27 17 22 19 71 20 101 0 13 -8 42 -18 65 -22 23 -4 48 -12 55 -18 20 -20 93 -67 102 -67 5 0 16 -6 24 -13 40 -32 135 -61 202 -59 48 1 77 -4 105 -19 43 -21 114 -25 132 -7 7 7 12 29 12 51 0 21 4 36 9 33 14 -9 41 4 41 20 0 8 4 14 9 14 5 0 14 13 19 29 9 25 17 31 56 36 25 4 46 11 46 15 0 4 25 13 55 20 30 7 55 17 55 21 0 11 111 -30 128 -48 7 -7 21 -13 30 -13 9 0 30 -7 45 -15 15 -8 56 -19 90 -26 34 -7 67 -15 72 -20 6 -4 45 -11 88 -15 l77 -7 2 64 c4 166 -13 343 -38 393 -27 55 -20 69 101 199 30 32 41 37 80 37 37 0 45 3 45 18 0 10 11 28 25 40 14 12 26 31 26 42 2 33 4 38 12 46 11 11 9 74 -3 74 -5 0 -9 3 -8 8 5 17 -45 94 -67 104 -14 6 -25 15 -25 20 0 5 -11 13 -25 18 -14 5 -25 14 -25 20 0 5 -7 18 -15 28 -9 9 -28 32 -42 50 -14 19 -37 38 -50 43 -33 12 -24 22 52 59 36 17 65 37 65 42 0 6 3 8 6 5 4 -4 24 7 44 23 21 17 43 30 48 30 6 0 15 6 19 14 4 8 12 15 16 15 21 0 221 188 288 271 93 114 171 289 193 435 1 6 5 16 10 23 4 7 10 82 13 167 5 139 13 180 26 143 5 -17 294 -19 305 -2 4 5 33 16 65 23 59 13 116 38 129 56 5 7 8 7 8 0 0 -6 3 -6 8 0 4 6 19 16 34 22 24 11 29 10 46 -12 27 -34 91 -75 118 -75 13 0 24 -4 24 -10 0 -5 16 -10 35 -10 19 0 35 5 35 10 0 6 10 10 21 10 47 0 156 91 191 159 7 14 16 28 19 31 12 11 49 98 58 140 6 25 11 66 11 93 0 26 4 55 9 65 12 22 38 127 57 227 18 98 20 239 5 322 -13 69 -47 153 -61 153 -6 0 -9 4 -7 9 4 15 -131 151 -151 151 -6 0 -15 6 -19 13 -6 10 -49 35 -73 42 -3 1 -16 6 -30 12 -28 12 -96 21 -183 25 -57 3 -61 5 -120 62 -78 74 -92 86 -100 86 -4 0 -28 15 -55 34 -26 19 -60 38 -75 41 -15 4 -27 11 -27 16 0 5 -3 8 -7 7 -8 -1 -22 4 -92 34 -24 10 -76 23 -115 30 -39 6 -75 15 -80 19 -13 12 -342 11 -364 0 -9 -5 -61 -14 -116 -20 -54 -7 -104 -15 -110 -18 -6 -4 -15 -8 -21 -10 -51 -12 -101 -27 -105 -33 -3 -3 -21 -12 -40 -20 -19 -8 -37 -16 -40 -19 -24 -27 -61 -31 -264 -31 -133 0 -217 -4 -221 -10 -13 -21 -58 -9 -97 24 -22 19 -53 38 -69 41 -16 4 -29 10 -29 14 0 8 -71 36 -82 33 -5 -1 -8 2 -8 7 0 4 -28 14 -62 21 -35 7 -68 16 -73 21 -32 24 -332 35 -485 18z m340 -99 c109 -14 180 -32 282 -72 140 -55 226 -153 275 -312 9 -31 21 -56 25 -56 14 0 9 102 -9 177 -9 40 -13 76 -9 80 4 5 98 8 209 8 161 0 219 -4 287 -19 83 -19 172 -55 185 -76 3 -5 15 -15 27 -21 16 -9 19 -8 13 3 -27 45 -76 95 -124 126 l-54 35 28 14 c111 59 317 96 530 97 144 0 170 -2 257 -26 120 -34 212 -75 302 -135 117 -80 188 -159 281 -315 l19 -33 4 32 c2 17 -1 56 -7 85 -5 29 -6 57 -2 61 11 11 141 -18 188 -42 127 -64 210 -171 238 -306 17 -78 17 -97 6 -178 -7 -51 -16 -95 -19 -99 -4 -4 -30 23 -57 60 -56 74 -144 150 -220 189 -92 47 -178 64 -322 65 l-132 0 -25 52 c-27 55 -61 94 -72 83 -4 -4 -1 -14 7 -23 8 -10 13 -42 13 -84 0 -176 -166 -350 -419 -437 -73 -26 -93 -28 -225 -28 -117 0 -154 4 -193 19 -27 10 -51 16 -53 13 -9 -9 79 -64 134 -83 28 -10 52 -21 52 -25 0 -10 -100 -29 -153 -28 -60 0 -182 24 -351 68 -65 17 -130 31 -145 31 -24 0 -22 3 29 49 30 27 52 52 48 56 -3 3 -29 -5 -56 -19 -162 -82 -584 -258 -777 -325 -244 -83 -497 -108 -815 -81 -114 10 -372 54 -416 70 -18 7 -22 6 -18 -5 3 -8 14 -17 23 -20 28 -9 74 -62 66 -76 -13 -19 -149 -3 -245 29 -220 75 -386 204 -461 359 -31 64 -33 75 -34 173 0 97 2 110 31 170 117 245 428 413 793 427 129 5 134 5 126 -13 -18 -46 -26 -107 -23 -200 l3 -99 18 80 c34 147 63 204 149 295 134 141 272 203 523 233 64 8 184 7 265 -3z m2539 -798 c175 -69 293 -204 325 -370 25 -132 -16 -260 -119 -368 -61 -64 -104 -76 -167 -48 -56 25 -91 74 -92 128 -1 45 5 55 88 160 20 26 30 52 34 86 4 47 2 52 -35 89 -49 49 -128 74 -233 74 -119 0 -194 -40 -390 -213 -132 -116 -246 -196 -343 -239 -37 -17 -67 -35 -67 -41 0 -22 31 -21 107 3 43 14 79 24 82 22 11 -12 22 -206 16 -305 -15 -269 -74 -437 -219 -615 -107 -133 -221 -225 -446 -360 -88 -52 -97 -56 -126 -46 -54 19 -116 8 -100 -18 4 -5 38 -27 76 -47 71 -37 79 -46 163 -180 14 -23 48 -58 75 -78 71 -52 73 -64 9 -62 -44 1 -52 -2 -52 -17 0 -10 16 -27 39 -40 53 -30 55 -44 9 -56 -22 -6 -54 -27 -75 -48 -62 -65 -178 -207 -178 -218 0 -5 9 -30 20 -54 38 -83 74 -341 50 -356 -11 -7 -188 40 -227 60 -16 8 -33 15 -39 15 -5 0 -36 16 -68 35 -60 36 -85 42 -102 26 -12 -12 -82 -38 -164 -60 -78 -21 -102 -35 -124 -72 -14 -25 -20 -27 -36 -17 -30 19 -52 -7 -48 -56 1 -22 -2 -41 -8 -43 -5 -2 -43 17 -84 42 -41 24 -83 45 -92 45 -24 0 -31 -16 -18 -40 8 -15 8 -20 -2 -20 -21 0 -133 56 -205 103 -37 24 -90 49 -118 56 -27 6 -73 21 -101 32 l-50 21 -75 -39 c-89 -48 -207 -89 -278 -99 l-51 -7 0 56 c0 81 19 204 41 267 l19 56 -66 99 c-36 55 -89 147 -117 205 -31 65 -64 118 -86 138 -40 37 -36 45 30 56 68 11 60 48 -12 60 -34 5 -39 9 -29 21 6 8 35 21 63 29 79 23 110 47 160 123 76 115 198 218 345 292 146 74 362 120 500 108 37 -4 77 -4 90 -1 24 7 30 29 8 37 -7 3 -33 34 -57 70 -97 143 -183 223 -274 254 -43 14 -49 14 -131 -13 -79 -25 -89 -26 -113 -13 -49 28 -64 138 -26 195 8 12 35 32 62 45 39 19 64 23 143 23 112 0 148 -13 255 -93 90 -68 160 -103 263 -130 83 -22 182 -25 189 -6 1 6 -15 20 -36 32 l-39 23 30 55 c25 47 32 54 48 45 26 -14 139 -28 178 -23 46 7 35 24 -29 44 -115 35 -242 109 -311 180 -60 62 -105 169 -119 282 -7 53 -10 100 -7 103 10 9 386 144 478 171 47 14 112 27 145 30 95 7 259 -21 381 -67 75 -27 156 -34 269 -20 114 14 205 46 261 94 22 19 56 36 79 40 208 38 402 166 475 313 19 37 35 70 37 72 8 12 90 20 174 16 76 -3 111 -10 168 -33z m-103 -358 c27 -9 58 -25 68 -35 19 -18 19 -19 1 -58 -9 -22 -29 -50 -42 -63 -36 -34 -55 -76 -62 -137 -6 -53 -8 -56 -56 -84 -27 -16 -81 -41 -120 -56 -64 -24 -83 -26 -215 -26 -175 0 -185 4 -194 76 -6 44 -4 55 12 72 19 18 20 18 70 -7 73 -37 85 -32 39 16 l-40 42 49 43 c73 66 194 158 233 178 106 54 177 65 257 39z m-2437 -381 l10 -82 -35 -78 c-53 -117 -87 -188 -90 -192 -2 -2 -27 7 -56 20 -46 20 -68 24 -168 23 -139 0 -183 -12 -243 -64 -126 -112 -86 -347 65 -377 32 -6 32 -6 -22 -25 -179 -61 -469 -62 -615 -1 l-44 18 93 180 c52 99 135 261 187 360 51 99 100 193 110 208 l17 29 203 2 c216 2 317 13 470 50 51 13 97 20 100 17 4 -3 12 -43 18 -88z m-984 77 c5 -9 -115 -189 -300 -451 -46 -66 -51 -70 -80 -65 -68 14 -66 20 81 212 230 299 242 314 269 314 13 0 27 -5 30 -10z m103 -36 c12 -4 22 -11 22 -16 0 -12 -348 -626 -365 -646 -10 -11 -21 -9 -64 12 -28 15 -51 30 -51 35 0 4 12 26 26 47 15 21 92 136 172 254 81 118 162 239 182 267 36 55 40 57 78 47z m1004 -344 c20 -26 57 -60 83 -76 42 -27 45 -32 41 -62 -3 -18 -14 -46 -26 -62 -18 -25 -26 -29 -48 -24 -81 19 -212 96 -212 124 0 10 19 59 43 109 l42 91 20 -27 c11 -14 37 -47 57 -73z"/>
 <path d="M2082 1915 c-37 -16 -42 -53 -7 -47 80 14 90 13 129 -13 40 -27 66 -27 66 0 0 22 -68 63 -115 70 -25 3 -52 0 -73 -10z"/>
 <path d="M2035 1726 c-34 -29 -38 -37 -29 -53 15 -25 154 -32 173 -9 15 18 -3 49 -46 77 -39 26 -52 24 -98 -15z"/>
 <path d="M1749 1605 c-48 -26 -61 -104 -23 -136 8 -7 15 -10 17 -8 1 2 7 13 13 24 15 28 56 26 69 -2 12 -29 20 -29 39 -1 51 72 -38 167 -115 123z"/>
 <path d="M2374 1610 c-50 -20 -69 -85 -37 -129 l16 -24 14 27 c9 17 22 26 38 26 25 0 46 -26 38 -47 -7 -19 11 -16 30 5 39 43 28 110 -22 137 -33 17 -46 18 -77 5z"/>
 <path d="M2840 929 c59 -52 135 -89 182 -89 37 0 38 1 38 34 0 62 -8 69 -42 41 -16 -14 -35 -25 -41 -25 -18 0 -134 57 -141 69 -4 6 -15 11 -24 11 -12 -1 -2 -14 28 -41z"/>
 <path d="M1455 915 c-22 -20 -57 -40 -78 -47 -33 -10 -41 -9 -67 10 l-30 22 -6 -25 c-18 -72 21 -93 98 -54 42 22 138 105 138 120 0 16 -14 9 -55 -26z"/>
 </g>
<g id="layer102" fill="#fbfdfe" stroke="none">
 <path d="M1855 4743 c-251 -30 -389 -92 -523 -233 -86 -91 -115 -148 -149 -295 l-18 -80 -3 99 c-3 93 5 154 23 200 8 18 3 18 -126 13 -184 -7 -339 -48 -486 -127 -153 -82 -247 -174 -307 -300 -29 -60 -31 -73 -31 -170 1 -98 3 -109 34 -173 75 -155 241 -284 461 -359 96 -32 232 -48 245 -29 8 14 -38 67 -66 76 -9 3 -20 12 -23 20 -4 11 0 12 18 5 44 -16 302 -60 416 -70 318 -27 571 -2 815 81 193 67 615 243 777 325 27 14 53 22 56 19 4 -4 -18 -29 -48 -56 -51 -46 -53 -49 -29 -49 15 0 80 -14 145 -31 169 -44 291 -68 351 -68 53 -1 153 18 153 28 0 4 -24 15 -52 25 -55 19 -143 74 -134 83 2 3 26 -3 53 -13 39 -15 76 -19 193 -19 132 0 152 2 225 28 184 63 321 170 385 301 29 58 34 80 34 136 0 42 -5 74 -13 84 -8 9 -11 19 -7 23 11 11 45 -28 72 -83 l25 -52 132 0 c144 -1 230 -18 322 -65 76 -39 164 -115 220 -189 27 -37 53 -64 57 -60 3 4 12 48 19 99 11 81 11 100 -6 178 -28 135 -111 242 -238 306 -47 24 -177 53 -188 42 -4 -4 -3 -32 2 -61 6 -29 9 -68 7 -85 l-4 -32 -19 33 c-93 156 -164 235 -281 315 -90 60 -182 101 -302 135 -87 24 -113 26 -257 26 -213 -1 -419 -38 -530 -97 l-28 -14 54 -35 c48 -31 97 -81 124 -126 6 -11 3 -12 -13 -3 -12 6 -24 16 -27 21 -13 21 -102 57 -185 76 -68 15 -126 19 -287 19 -111 0 -205 -3 -209 -8 -4 -4 0 -40 9 -80 18 -75 23 -177 9 -177 -4 0 -16 25 -25 56 -49 159 -135 257 -275 312 -102 40 -173 58 -282 72 -81 10 -201 11 -265 3z"/>
 <path d="M2858 4673 c29 -2 74 -2 100 0 26 2 2 3 -53 3 -55 0 -76 -1 -47 -3z"/>
 <path d="M4357 3971 c-20 -4 -39 -10 -40 -12 -2 -2 -18 -35 -37 -72 -73 -147 -267 -275 -475 -313 -23 -4 -57 -21 -79 -40 -56 -48 -147 -80 -261 -94 -113 -14 -194 -7 -269 20 -122 46 -286 74 -381 67 -33 -3 -98 -16 -145 -30 -92 -27 -468 -162 -478 -171 -3 -3 0 -50 7 -103 14 -113 59 -220 119 -282 69 -71 196 -145 311 -180 64 -20 75 -37 29 -44 -39 -5 -152 9 -178 23 -16 9 -23 2 -48 -45 l-30 -55 39 -23 c130 -74 -139 -53 -291 23 -30 16 -86 52 -125 81 -107 80 -143 93 -255 93 -79 0 -104 -4 -143 -23 -27 -13 -54 -33 -62 -45 -38 -57 -23 -167 26 -195 24 -13 34 -12 113 13 82 27 88 27 131 13 91 -31 177 -111 274 -254 24 -36 50 -67 57 -70 22 -8 16 -30 -8 -37 -13 -3 -53 -3 -90 1 -138 12 -354 -34 -500 -108 -147 -74 -269 -177 -345 -292 -50 -76 -81 -100 -160 -123 -28 -8 -57 -21 -63 -29 -10 -12 -5 -16 29 -21 72 -12 80 -49 12 -60 -66 -11 -70 -19 -30 -56 22 -20 55 -73 86 -138 28 -58 81 -150 117 -205 l66 -99 -19 -56 c-22 -63 -41 -186 -41 -267 l0 -56 51 7 c71 10 189 51 278 99 l75 39 50 -21 c28 -11 74 -26 101 -32 28 -7 81 -32 118 -56 72 -47 184 -103 205 -103 10 0 10 5 2 20 -13 24 -6 40 18 40 9 0 51 -21 92 -45 41 -25 79 -44 84 -42 6 2 9 21 8 43 -4 49 18 75 48 56 16 -10 22 -8 36 17 22 37 46 51 124 72 82 22 152 48 164 60 17 16 42 10 102 -26 32 -19 63 -35 68 -35 6 0 23 -7 39 -15 39 -20 216 -67 227 -60 24 15 -12 273 -50 356 -11 24 -20 49 -20 54 0 11 116 153 178 218 21 21 53 42 75 48 46 12 44 26 -9 56 -23 13 -39 30 -39 40 0 15 8 18 52 17 64 -2 62 10 -9 62 -27 20 -61 55 -75 78 -84 134 -92 143 -163 180 -38 20 -72 42 -76 47 -16 26 46 37 100 18 29 -10 38 -6 126 46 225 135 339 227 446 360 145 178 204 346 219 615 6 99 -5 293 -16 305 -3 2 -39 -8 -82 -22 -76 -24 -107 -25 -107 -3 0 6 30 24 67 41 97 43 211 123 343 239 196 173 271 213 390 213 105 0 184 -25 233 -74 37 -37 39 -42 35 -89 -4 -34 -14 -60 -34 -86 -83 -105 -89 -115 -88 -160 2 -83 89 -154 171 -139 46 8 123 84 166 163 126 233 -4 523 -284 634 -57 23 -92 30 -168 33 -53 2 -113 0 -134 -4z m-2124 -2077 c38 -25 48 -50 23 -60 -7 -3 -31 7 -52 21 -39 26 -49 27 -129 13 -35 -6 -30 31 7 47 43 20 102 11 151 -21z m-100 -153 c43 -28 61 -59 46 -77 -19 -23 -158 -16 -173 9 -9 16 -5 24 29 53 46 39 59 41 98 15z m-275 -157 c26 -29 28 -70 6 -102 -19 -28 -27 -28 -39 1 -13 28 -54 30 -69 2 -6 -11 -12 -22 -13 -24 -6 -10 -32 22 -38 46 -22 88 92 146 153 77z m593 21 c50 -27 61 -94 22 -137 -19 -21 -37 -24 -30 -5 8 21 -13 47 -38 47 -16 0 -29 -9 -38 -26 l-14 -27 -16 24 c-32 44 -13 109 37 129 31 13 44 12 77 -5z m385 -646 c7 -12 123 -69 141 -69 6 0 25 11 41 25 34 28 42 21 42 -41 0 -33 -1 -34 -38 -34 -21 0 -60 11 -88 25 -61 30 -147 104 -122 105 9 0 20 -5 24 -11z m-1326 -18 c0 -15 -96 -98 -138 -120 -77 -39 -116 -18 -98 54 l6 25 30 -22 c26 -19 34 -20 67 -10 21 7 56 27 78 47 41 35 55 42 55 26z"/>
 <path d="M4384 3581 c-27 -10 -66 -26 -85 -36 -39 -20 -160 -112 -233 -178 l-49 -43 40 -42 c46 -48 34 -53 -39 -16 -50 25 -51 25 -70 7 -16 -17 -18 -28 -12 -72 9 -72 19 -76 194 -76 132 0 151 2 215 26 39 15 93 40 120 56 48 28 50 31 56 84 7 61 26 103 62 137 13 13 33 41 42 63 18 39 18 40 -1 58 -25 24 -108 51 -153 50 -20 0 -59 -9 -87 -18z"/>
 <path d="M2001 3274 c-153 -37 -254 -48 -470 -50 l-203 -2 -17 -29 c-10 -15 -59 -109 -110 -208 -52 -99 -135 -261 -187 -360 l-93 -180 44 -18 c146 -61 436 -60 615 1 54 19 54 19 22 25 -107 21 -169 161 -128 285 21 62 87 126 150 144 23 7 93 12 156 12 100 1 122 -3 168 -23 29 -13 54 -22 56 -20 3 4 37 75 90 192 l35 78 -10 82 c-6 45 -14 85 -18 88 -3 3 -49 -4 -100 -17z"/>
 <path d="M1027 3223 c-29 -38 -115 -149 -191 -247 -147 -192 -149 -198 -81 -212 29 -5 34 -1 80 65 185 262 305 442 300 451 -3 5 -17 10 -30 10 -18 0 -38 -18 -78 -67z"/>
 <path d="M1160 3197 c-20 -28 -101 -149 -182 -267 -80 -118 -157 -233 -172 -254 -14 -21 -26 -43 -26 -47 0 -5 23 -20 51 -35 43 -21 54 -23 64 -12 17 20 365 634 365 646 0 9 -32 22 -55 22 -5 0 -26 -24 -45 -53z"/>
 <path d="M2123 2909 c-24 -50 -43 -99 -43 -109 0 -28 131 -105 212 -124 22 -5 30 -1 48 24 12 16 23 44 26 62 4 30 1 35 -41 62 -41 25 -68 53 -140 149 l-20 27 -42 -91z"/>
 </g>

</svg>